
<svg xmlns="http://www.w3.org/2000/svg"
     id="eb76573c-a87d-4df1-8fad-244fe24773bf"
     width="1024" 
     height="256" 
     viewBox="0 0 192 48">
<rect width="192" height="48" x="0" y="0" fill="rgba(43, 37, 3, 1)"/>
<rect width="4" height="4" x="0" y="0" stroke="none" fill="rgba(215, 185, 15, 1)" />
<rect width="4" height="4" x="4" y="0" stroke="none" fill="#DEC010" />
<rect width="4" height="4" x="8" y="0" stroke="none" fill="rgba(215, 185, 15, 1)" />
<rect width="4" height="4" x="12" y="0" stroke="none" fill="#DEC010" />
<rect width="4" height="4" x="16" y="0" stroke="none" fill="rgba(215, 185, 15, 1)" />
<rect width="4" height="4" x="20" y="0" stroke="none" fill="#DEC010" />
<rect width="4" height="4" x="24" y="0" stroke="none" fill="rgba(215, 185, 15, 1)" />
<rect width="4" height="4" x="28" y="0" stroke="none" fill="#DEC010" />
<rect width="4" height="4" x="32" y="0" stroke="none" fill="rgba(215, 185, 15, 1)" />
<rect width="4" height="4" x="36" y="0" stroke="none" fill="#DEC010" />
<rect width="4" height="4" x="40" y="0" stroke="none" fill="rgba(215, 185, 15, 1)" />
<rect width="4" height="4" x="44" y="0" stroke="none" fill="#DEC010" />
<rect width="4" height="4" x="48" y="0" stroke="none" fill="rgba(215, 185, 15, 1)" />
<rect width="4" height="4" x="52" y="0" stroke="none" fill="#DEC010" />
<rect width="4" height="4" x="56" y="0" stroke="none" fill="rgba(215, 185, 15, 1)" />
<rect width="4" height="4" x="60" y="0" stroke="none" fill="#DEC010" />
<rect width="4" height="4" x="64" y="0" stroke="none" fill="rgba(215, 185, 15, 1)" />
<rect width="4" height="4" x="68" y="0" stroke="none" fill="#DEC010" />
<rect width="4" height="4" x="72" y="0" stroke="none" fill="rgba(215, 185, 15, 1)" />
<rect width="4" height="4" x="76" y="0" stroke="none" fill="#DEC010" />
<rect width="4" height="4" x="80" y="0" stroke="none" fill="rgba(215, 185, 15, 1)" />
<rect width="4" height="4" x="84" y="0" stroke="none" fill="#DEC010" />
<rect width="4" height="4" x="88" y="0" stroke="none" fill="rgba(215, 185, 15, 1)" />
<rect width="4" height="4" x="92" y="0" stroke="none" fill="#DEC010" />
<rect width="4" height="4" x="96" y="0" stroke="none" fill="rgba(215, 185, 15, 1)" />
<rect width="4" height="4" x="100" y="0" stroke="none" fill="#DEC010" />
<rect width="4" height="4" x="104" y="0" stroke="none" fill="rgba(215, 185, 15, 1)" />
<rect width="4" height="4" x="108" y="0" stroke="none" fill="#DEC010" />
<rect width="4" height="4" x="112" y="0" stroke="none" fill="rgba(215, 185, 15, 1)" />
<rect width="4" height="4" x="116" y="0" stroke="none" fill="#DEC010" />
<rect width="4" height="4" x="120" y="0" stroke="none" fill="rgba(215, 185, 15, 1)" />
<rect width="4" height="4" x="124" y="0" stroke="none" fill="#DEC010" />
<rect width="4" height="4" x="128" y="0" stroke="none" fill="rgba(215, 185, 15, 1)" />
<rect width="4" height="4" x="132" y="0" stroke="none" fill="#DEC010" />
<rect width="4" height="4" x="136" y="0" stroke="none" fill="rgba(215, 185, 15, 1)" />
<rect width="4" height="4" x="140" y="0" stroke="none" fill="#DEC010" />
<rect width="4" height="4" x="144" y="0" stroke="none" fill="rgba(215, 185, 15, 1)" />
<rect width="4" height="4" x="148" y="0" stroke="none" fill="#DEC010" />
<rect width="4" height="4" x="152" y="0" stroke="none" fill="rgba(215, 185, 15, 1)" />
<rect width="4" height="4" x="156" y="0" stroke="none" fill="#DEC010" />
<rect width="4" height="4" x="160" y="0" stroke="none" fill="rgba(215, 185, 15, 1)" />
<rect width="4" height="4" x="164" y="0" stroke="none" fill="#DEC010" />
<rect width="4" height="4" x="168" y="0" stroke="none" fill="rgba(215, 185, 15, 1)" />
<rect width="4" height="4" x="172" y="0" stroke="none" fill="#DEC010" />
<rect width="4" height="4" x="176" y="0" stroke="none" fill="rgba(215, 185, 15, 1)" />
<rect width="4" height="4" x="180" y="0" stroke="none" fill="#DEC010" />
<rect width="4" height="4" x="184" y="0" stroke="none" fill="rgba(215, 185, 15, 1)" />
<rect width="4" height="4" x="188" y="0" stroke="none" fill="#DEC010" /><rect width="4" height="4" x="0" y="4" stroke="none" fill="#DEC010" />
<rect width="4" height="4" x="4" y="4" stroke="none" fill="transparent" />
<rect width="4" height="4" x="8" y="4" stroke="none" fill="transparent" />
<rect width="4" height="4" x="12" y="4" stroke="none" fill="transparent" />
<rect width="4" height="4" x="16" y="4" stroke="none" fill="transparent" />
<rect width="4" height="4" x="20" y="4" stroke="none" fill="transparent" />
<rect width="4" height="4" x="24" y="4" stroke="none" fill="transparent" />
<rect width="4" height="4" x="28" y="4" stroke="none" fill="transparent" />
<rect width="4" height="4" x="32" y="4" stroke="none" fill="transparent" />
<rect width="4" height="4" x="36" y="4" stroke="none" fill="transparent" />
<rect width="4" height="4" x="40" y="4" stroke="none" fill="transparent" />
<rect width="4" height="4" x="44" y="4" stroke="none" fill="transparent" />
<rect width="4" height="4" x="48" y="4" stroke="none" fill="transparent" />
<rect width="4" height="4" x="52" y="4" stroke="none" fill="transparent" />
<rect width="4" height="4" x="56" y="4" stroke="none" fill="transparent" />
<rect width="4" height="4" x="60" y="4" stroke="none" fill="transparent" />
<rect width="4" height="4" x="64" y="4" stroke="none" fill="transparent" />
<rect width="4" height="4" x="68" y="4" stroke="none" fill="transparent" />
<rect width="4" height="4" x="72" y="4" stroke="none" fill="transparent" />
<rect width="4" height="4" x="76" y="4" stroke="none" fill="transparent" />
<rect width="4" height="4" x="80" y="4" stroke="none" fill="transparent" />
<rect width="4" height="4" x="84" y="4" stroke="none" fill="transparent" />
<rect width="4" height="4" x="88" y="4" stroke="none" fill="transparent" />
<rect width="4" height="4" x="92" y="4" stroke="none" fill="transparent" />
<rect width="4" height="4" x="96" y="4" stroke="none" fill="transparent" />
<rect width="4" height="4" x="100" y="4" stroke="none" fill="transparent" />
<rect width="4" height="4" x="104" y="4" stroke="none" fill="transparent" />
<rect width="4" height="4" x="108" y="4" stroke="none" fill="transparent" />
<rect width="4" height="4" x="112" y="4" stroke="none" fill="transparent" />
<rect width="4" height="4" x="116" y="4" stroke="none" fill="transparent" />
<rect width="4" height="4" x="120" y="4" stroke="none" fill="transparent" />
<rect width="4" height="4" x="124" y="4" stroke="none" fill="transparent" />
<rect width="4" height="4" x="128" y="4" stroke="none" fill="transparent" />
<rect width="4" height="4" x="132" y="4" stroke="none" fill="transparent" />
<rect width="4" height="4" x="136" y="4" stroke="none" fill="transparent" />
<rect width="4" height="4" x="140" y="4" stroke="none" fill="transparent" />
<rect width="4" height="4" x="144" y="4" stroke="none" fill="transparent" />
<rect width="4" height="4" x="148" y="4" stroke="none" fill="transparent" />
<rect width="4" height="4" x="152" y="4" stroke="none" fill="transparent" />
<rect width="4" height="4" x="156" y="4" stroke="none" fill="transparent" />
<rect width="4" height="4" x="160" y="4" stroke="none" fill="transparent" />
<rect width="4" height="4" x="164" y="4" stroke="none" fill="transparent" />
<rect width="4" height="4" x="168" y="4" stroke="none" fill="transparent" />
<rect width="4" height="4" x="172" y="4" stroke="none" fill="transparent" />
<rect width="4" height="4" x="176" y="4" stroke="none" fill="transparent" />
<rect width="4" height="4" x="180" y="4" stroke="none" fill="transparent" />
<rect width="4" height="4" x="184" y="4" stroke="none" fill="transparent" />
<rect width="4" height="4" x="188" y="4" stroke="none" fill="rgba(215, 185, 15, 1)" /><rect width="4" height="4" x="0" y="8" stroke="none" fill="rgba(215, 185, 15, 1)" />
<rect width="4" height="4" x="4" y="8" stroke="none" fill="transparent" />
<rect width="4" height="4" x="8" y="8" stroke="none" fill="rgba(215, 185, 15, 1)" />
<rect width="4" height="4" x="12" y="8" stroke="none" fill="#DEC010" />
<rect width="4" height="4" x="16" y="8" stroke="none" fill="rgba(215, 185, 15, 1)" />
<rect width="4" height="4" x="20" y="8" stroke="none" fill="#DEC010" />
<rect width="4" height="4" x="24" y="8" stroke="none" fill="rgba(215, 185, 15, 1)" />
<rect width="4" height="4" x="28" y="8" stroke="none" fill="#DEC010" />
<rect width="4" height="4" x="32" y="8" stroke="none" fill="rgba(215, 185, 15, 1)" />
<rect width="4" height="4" x="36" y="8" stroke="none" fill="#DEC010" />
<rect width="4" height="4" x="40" y="8" stroke="none" fill="transparent" />
<rect width="4" height="4" x="44" y="8" stroke="none" fill="#DEC010" />
<rect width="4" height="4" x="48" y="8" stroke="none" fill="rgba(215, 185, 15, 1)" />
<rect width="4" height="4" x="52" y="8" stroke="none" fill="transparent" />
<rect width="4" height="4" x="56" y="8" stroke="none" fill="transparent" />
<rect width="4" height="4" x="60" y="8" stroke="none" fill="transparent" />
<rect width="4" height="4" x="64" y="8" stroke="none" fill="transparent" />
<rect width="4" height="4" x="68" y="8" stroke="none" fill="#DEC010" />
<rect width="4" height="4" x="72" y="8" stroke="none" fill="rgba(215, 185, 15, 1)" />
<rect width="4" height="4" x="76" y="8" stroke="none" fill="transparent" />
<rect width="4" height="4" x="80" y="8" stroke="none" fill="rgba(215, 185, 15, 1)" />
<rect width="4" height="4" x="84" y="8" stroke="none" fill="#DEC010" />
<rect width="4" height="4" x="88" y="8" stroke="none" fill="rgba(215, 185, 15, 1)" />
<rect width="4" height="4" x="92" y="8" stroke="none" fill="#DEC010" />
<rect width="4" height="4" x="96" y="8" stroke="none" fill="rgba(215, 185, 15, 1)" />
<rect width="4" height="4" x="100" y="8" stroke="none" fill="#DEC010" />
<rect width="4" height="4" x="104" y="8" stroke="none" fill="rgba(215, 185, 15, 1)" />
<rect width="4" height="4" x="108" y="8" stroke="none" fill="#DEC010" />
<rect width="4" height="4" x="112" y="8" stroke="none" fill="transparent" />
<rect width="4" height="4" x="116" y="8" stroke="none" fill="#DEC010" />
<rect width="4" height="4" x="120" y="8" stroke="none" fill="rgba(215, 185, 15, 1)" />
<rect width="4" height="4" x="124" y="8" stroke="none" fill="#DEC010" />
<rect width="4" height="4" x="128" y="8" stroke="none" fill="rgba(215, 185, 15, 1)" />
<rect width="4" height="4" x="132" y="8" stroke="none" fill="#DEC010" />
<rect width="4" height="4" x="136" y="8" stroke="none" fill="rgba(215, 185, 15, 1)" />
<rect width="4" height="4" x="140" y="8" stroke="none" fill="#DEC010" />
<rect width="4" height="4" x="144" y="8" stroke="none" fill="rgba(215, 185, 15, 1)" />
<rect width="4" height="4" x="148" y="8" stroke="none" fill="transparent" />
<rect width="4" height="4" x="152" y="8" stroke="none" fill="rgba(215, 185, 15, 1)" />
<rect width="4" height="4" x="156" y="8" stroke="none" fill="#DEC010" />
<rect width="4" height="4" x="160" y="8" stroke="none" fill="rgba(215, 185, 15, 1)" />
<rect width="4" height="4" x="164" y="8" stroke="none" fill="#DEC010" />
<rect width="4" height="4" x="168" y="8" stroke="none" fill="rgba(215, 185, 15, 1)" />
<rect width="4" height="4" x="172" y="8" stroke="none" fill="#DEC010" />
<rect width="4" height="4" x="176" y="8" stroke="none" fill="rgba(215, 185, 15, 1)" />
<rect width="4" height="4" x="180" y="8" stroke="none" fill="#DEC010" />
<rect width="4" height="4" x="184" y="8" stroke="none" fill="transparent" />
<rect width="4" height="4" x="188" y="8" stroke="none" fill="#DEC010" /><rect width="4" height="4" x="0" y="12" stroke="none" fill="#DEC010" />
<rect width="4" height="4" x="4" y="12" stroke="none" fill="transparent" />
<rect width="4" height="4" x="8" y="12" stroke="none" fill="#DEC010" />
<rect width="4" height="4" x="12" y="12" stroke="none" fill="rgba(215, 185, 15, 1)" />
<rect width="4" height="4" x="16" y="12" stroke="none" fill="#DEC010" />
<rect width="4" height="4" x="20" y="12" stroke="none" fill="rgba(215, 185, 15, 1)" />
<rect width="4" height="4" x="24" y="12" stroke="none" fill="#DEC010" />
<rect width="4" height="4" x="28" y="12" stroke="none" fill="rgba(215, 185, 15, 1)" />
<rect width="4" height="4" x="32" y="12" stroke="none" fill="#DEC010" />
<rect width="4" height="4" x="36" y="12" stroke="none" fill="rgba(215, 185, 15, 1)" />
<rect width="4" height="4" x="40" y="12" stroke="none" fill="transparent" />
<rect width="4" height="4" x="44" y="12" stroke="none" fill="rgba(215, 185, 15, 1)" />
<rect width="4" height="4" x="48" y="12" stroke="none" fill="#DEC010" />
<rect width="4" height="4" x="52" y="12" stroke="none" fill="transparent" />
<rect width="4" height="4" x="56" y="12" stroke="none" fill="transparent" />
<rect width="4" height="4" x="60" y="12" stroke="none" fill="transparent" />
<rect width="4" height="4" x="64" y="12" stroke="none" fill="transparent" />
<rect width="4" height="4" x="68" y="12" stroke="none" fill="rgba(215, 185, 15, 1)" />
<rect width="4" height="4" x="72" y="12" stroke="none" fill="#DEC010" />
<rect width="4" height="4" x="76" y="12" stroke="none" fill="transparent" />
<rect width="4" height="4" x="80" y="12" stroke="none" fill="#DEC010" />
<rect width="4" height="4" x="84" y="12" stroke="none" fill="rgba(215, 185, 15, 1)" />
<rect width="4" height="4" x="88" y="12" stroke="none" fill="#DEC010" />
<rect width="4" height="4" x="92" y="12" stroke="none" fill="rgba(215, 185, 15, 1)" />
<rect width="4" height="4" x="96" y="12" stroke="none" fill="#DEC010" />
<rect width="4" height="4" x="100" y="12" stroke="none" fill="rgba(215, 185, 15, 1)" />
<rect width="4" height="4" x="104" y="12" stroke="none" fill="#DEC010" />
<rect width="4" height="4" x="108" y="12" stroke="none" fill="rgba(215, 185, 15, 1)" />
<rect width="4" height="4" x="112" y="12" stroke="none" fill="transparent" />
<rect width="4" height="4" x="116" y="12" stroke="none" fill="rgba(215, 185, 15, 1)" />
<rect width="4" height="4" x="120" y="12" stroke="none" fill="#DEC010" />
<rect width="4" height="4" x="124" y="12" stroke="none" fill="rgba(215, 185, 15, 1)" />
<rect width="4" height="4" x="128" y="12" stroke="none" fill="#DEC010" />
<rect width="4" height="4" x="132" y="12" stroke="none" fill="rgba(215, 185, 15, 1)" />
<rect width="4" height="4" x="136" y="12" stroke="none" fill="#DEC010" />
<rect width="4" height="4" x="140" y="12" stroke="none" fill="rgba(215, 185, 15, 1)" />
<rect width="4" height="4" x="144" y="12" stroke="none" fill="#DEC010" />
<rect width="4" height="4" x="148" y="12" stroke="none" fill="transparent" />
<rect width="4" height="4" x="152" y="12" stroke="none" fill="#DEC010" />
<rect width="4" height="4" x="156" y="12" stroke="none" fill="rgba(215, 185, 15, 1)" />
<rect width="4" height="4" x="160" y="12" stroke="none" fill="#DEC010" />
<rect width="4" height="4" x="164" y="12" stroke="none" fill="rgba(215, 185, 15, 1)" />
<rect width="4" height="4" x="168" y="12" stroke="none" fill="#DEC010" />
<rect width="4" height="4" x="172" y="12" stroke="none" fill="rgba(215, 185, 15, 1)" />
<rect width="4" height="4" x="176" y="12" stroke="none" fill="#DEC010" />
<rect width="4" height="4" x="180" y="12" stroke="none" fill="rgba(215, 185, 15, 1)" />
<rect width="4" height="4" x="184" y="12" stroke="none" fill="transparent" />
<rect width="4" height="4" x="188" y="12" stroke="none" fill="rgba(215, 185, 15, 1)" /><rect width="4" height="4" x="0" y="16" stroke="none" fill="rgba(215, 185, 15, 1)" />
<rect width="4" height="4" x="4" y="16" stroke="none" fill="transparent" />
<rect width="4" height="4" x="8" y="16" stroke="none" fill="rgba(215, 185, 15, 1)" />
<rect width="4" height="4" x="12" y="16" stroke="none" fill="#DEC010" />
<rect width="4" height="4" x="16" y="16" stroke="none" fill="transparent" />
<rect width="4" height="4" x="20" y="16" stroke="none" fill="transparent" />
<rect width="4" height="4" x="24" y="16" stroke="none" fill="transparent" />
<rect width="4" height="4" x="28" y="16" stroke="none" fill="transparent" />
<rect width="4" height="4" x="32" y="16" stroke="none" fill="transparent" />
<rect width="4" height="4" x="36" y="16" stroke="none" fill="transparent" />
<rect width="4" height="4" x="40" y="16" stroke="none" fill="transparent" />
<rect width="4" height="4" x="44" y="16" stroke="none" fill="#DEC010" />
<rect width="4" height="4" x="48" y="16" stroke="none" fill="rgba(215, 185, 15, 1)" />
<rect width="4" height="4" x="52" y="16" stroke="none" fill="transparent" />
<rect width="4" height="4" x="56" y="16" stroke="none" fill="transparent" />
<rect width="4" height="4" x="60" y="16" stroke="none" fill="transparent" />
<rect width="4" height="4" x="64" y="16" stroke="none" fill="transparent" />
<rect width="4" height="4" x="68" y="16" stroke="none" fill="#DEC010" />
<rect width="4" height="4" x="72" y="16" stroke="none" fill="rgba(215, 185, 15, 1)" />
<rect width="4" height="4" x="76" y="16" stroke="none" fill="transparent" />
<rect width="4" height="4" x="80" y="16" stroke="none" fill="rgba(215, 185, 15, 1)" />
<rect width="4" height="4" x="84" y="16" stroke="none" fill="#DEC010" />
<rect width="4" height="4" x="88" y="16" stroke="none" fill="transparent" />
<rect width="4" height="4" x="92" y="16" stroke="none" fill="transparent" />
<rect width="4" height="4" x="96" y="16" stroke="none" fill="transparent" />
<rect width="4" height="4" x="100" y="16" stroke="none" fill="transparent" />
<rect width="4" height="4" x="104" y="16" stroke="none" fill="transparent" />
<rect width="4" height="4" x="108" y="16" stroke="none" fill="transparent" />
<rect width="4" height="4" x="112" y="16" stroke="none" fill="transparent" />
<rect width="4" height="4" x="116" y="16" stroke="none" fill="#DEC010" />
<rect width="4" height="4" x="120" y="16" stroke="none" fill="rgba(215, 185, 15, 1)" />
<rect width="4" height="4" x="124" y="16" stroke="none" fill="transparent" />
<rect width="4" height="4" x="128" y="16" stroke="none" fill="transparent" />
<rect width="4" height="4" x="132" y="16" stroke="none" fill="transparent" />
<rect width="4" height="4" x="136" y="16" stroke="none" fill="transparent" />
<rect width="4" height="4" x="140" y="16" stroke="none" fill="#DEC010" />
<rect width="4" height="4" x="144" y="16" stroke="none" fill="rgba(215, 185, 15, 1)" />
<rect width="4" height="4" x="148" y="16" stroke="none" fill="transparent" />
<rect width="4" height="4" x="152" y="16" stroke="none" fill="rgba(215, 185, 15, 1)" />
<rect width="4" height="4" x="156" y="16" stroke="none" fill="#DEC010" />
<rect width="4" height="4" x="160" y="16" stroke="none" fill="transparent" />
<rect width="4" height="4" x="164" y="16" stroke="none" fill="transparent" />
<rect width="4" height="4" x="168" y="16" stroke="none" fill="transparent" />
<rect width="4" height="4" x="172" y="16" stroke="none" fill="transparent" />
<rect width="4" height="4" x="176" y="16" stroke="none" fill="transparent" />
<rect width="4" height="4" x="180" y="16" stroke="none" fill="transparent" />
<rect width="4" height="4" x="184" y="16" stroke="none" fill="transparent" />
<rect width="4" height="4" x="188" y="16" stroke="none" fill="#DEC010" /><rect width="4" height="4" x="0" y="20" stroke="none" fill="#DEC010" />
<rect width="4" height="4" x="4" y="20" stroke="none" fill="transparent" />
<rect width="4" height="4" x="8" y="20" stroke="none" fill="#DEC010" />
<rect width="4" height="4" x="12" y="20" stroke="none" fill="rgba(215, 185, 15, 1)" />
<rect width="4" height="4" x="16" y="20" stroke="none" fill="#DEC010" />
<rect width="4" height="4" x="20" y="20" stroke="none" fill="rgba(215, 185, 15, 1)" />
<rect width="4" height="4" x="24" y="20" stroke="none" fill="#DEC010" />
<rect width="4" height="4" x="28" y="20" stroke="none" fill="rgba(215, 185, 15, 1)" />
<rect width="4" height="4" x="32" y="20" stroke="none" fill="#DEC010" />
<rect width="4" height="4" x="36" y="20" stroke="none" fill="rgba(215, 185, 15, 1)" />
<rect width="4" height="4" x="40" y="20" stroke="none" fill="transparent" />
<rect width="4" height="4" x="44" y="20" stroke="none" fill="rgba(215, 185, 15, 1)" />
<rect width="4" height="4" x="48" y="20" stroke="none" fill="#DEC010" />
<rect width="4" height="4" x="52" y="20" stroke="none" fill="transparent" />
<rect width="4" height="4" x="56" y="20" stroke="none" fill="transparent" />
<rect width="4" height="4" x="60" y="20" stroke="none" fill="transparent" />
<rect width="4" height="4" x="64" y="20" stroke="none" fill="transparent" />
<rect width="4" height="4" x="68" y="20" stroke="none" fill="rgba(215, 185, 15, 1)" />
<rect width="4" height="4" x="72" y="20" stroke="none" fill="#DEC010" />
<rect width="4" height="4" x="76" y="20" stroke="none" fill="transparent" />
<rect width="4" height="4" x="80" y="20" stroke="none" fill="#DEC010" />
<rect width="4" height="4" x="84" y="20" stroke="none" fill="rgba(215, 185, 15, 1)" />
<rect width="4" height="4" x="88" y="20" stroke="none" fill="transparent" />
<rect width="4" height="4" x="92" y="20" stroke="none" fill="transparent" />
<rect width="4" height="4" x="96" y="20" stroke="none" fill="#DEC010" />
<rect width="4" height="4" x="100" y="20" stroke="none" fill="rgba(215, 185, 15, 1)" />
<rect width="4" height="4" x="104" y="20" stroke="none" fill="#DEC010" />
<rect width="4" height="4" x="108" y="20" stroke="none" fill="rgba(215, 185, 15, 1)" />
<rect width="4" height="4" x="112" y="20" stroke="none" fill="transparent" />
<rect width="4" height="4" x="116" y="20" stroke="none" fill="rgba(215, 185, 15, 1)" />
<rect width="4" height="4" x="120" y="20" stroke="none" fill="#DEC010" />
<rect width="4" height="4" x="124" y="20" stroke="none" fill="transparent" />
<rect width="4" height="4" x="128" y="20" stroke="none" fill="transparent" />
<rect width="4" height="4" x="132" y="20" stroke="none" fill="transparent" />
<rect width="4" height="4" x="136" y="20" stroke="none" fill="transparent" />
<rect width="4" height="4" x="140" y="20" stroke="none" fill="rgba(215, 185, 15, 1)" />
<rect width="4" height="4" x="144" y="20" stroke="none" fill="#DEC010" />
<rect width="4" height="4" x="148" y="20" stroke="none" fill="transparent" />
<rect width="4" height="4" x="152" y="20" stroke="none" fill="#DEC010" />
<rect width="4" height="4" x="156" y="20" stroke="none" fill="rgba(215, 185, 15, 1)" />
<rect width="4" height="4" x="160" y="20" stroke="none" fill="#DEC010" />
<rect width="4" height="4" x="164" y="20" stroke="none" fill="rgba(215, 185, 15, 1)" />
<rect width="4" height="4" x="168" y="20" stroke="none" fill="#DEC010" />
<rect width="4" height="4" x="172" y="20" stroke="none" fill="rgba(215, 185, 15, 1)" />
<rect width="4" height="4" x="176" y="20" stroke="none" fill="#DEC010" />
<rect width="4" height="4" x="180" y="20" stroke="none" fill="rgba(215, 185, 15, 1)" />
<rect width="4" height="4" x="184" y="20" stroke="none" fill="transparent" />
<rect width="4" height="4" x="188" y="20" stroke="none" fill="rgba(215, 185, 15, 1)" /><rect width="4" height="4" x="0" y="24" stroke="none" fill="rgba(215, 185, 15, 1)" />
<rect width="4" height="4" x="4" y="24" stroke="none" fill="transparent" />
<rect width="4" height="4" x="8" y="24" stroke="none" fill="rgba(215, 185, 15, 1)" />
<rect width="4" height="4" x="12" y="24" stroke="none" fill="#DEC010" />
<rect width="4" height="4" x="16" y="24" stroke="none" fill="rgba(215, 185, 15, 1)" />
<rect width="4" height="4" x="20" y="24" stroke="none" fill="#DEC010" />
<rect width="4" height="4" x="24" y="24" stroke="none" fill="rgba(215, 185, 15, 1)" />
<rect width="4" height="4" x="28" y="24" stroke="none" fill="#DEC010" />
<rect width="4" height="4" x="32" y="24" stroke="none" fill="rgba(215, 185, 15, 1)" />
<rect width="4" height="4" x="36" y="24" stroke="none" fill="#DEC010" />
<rect width="4" height="4" x="40" y="24" stroke="none" fill="transparent" />
<rect width="4" height="4" x="44" y="24" stroke="none" fill="#DEC010" />
<rect width="4" height="4" x="48" y="24" stroke="none" fill="rgba(215, 185, 15, 1)" />
<rect width="4" height="4" x="52" y="24" stroke="none" fill="transparent" />
<rect width="4" height="4" x="56" y="24" stroke="none" fill="transparent" />
<rect width="4" height="4" x="60" y="24" stroke="none" fill="transparent" />
<rect width="4" height="4" x="64" y="24" stroke="none" fill="transparent" />
<rect width="4" height="4" x="68" y="24" stroke="none" fill="#DEC010" />
<rect width="4" height="4" x="72" y="24" stroke="none" fill="rgba(215, 185, 15, 1)" />
<rect width="4" height="4" x="76" y="24" stroke="none" fill="transparent" />
<rect width="4" height="4" x="80" y="24" stroke="none" fill="rgba(215, 185, 15, 1)" />
<rect width="4" height="4" x="84" y="24" stroke="none" fill="#DEC010" />
<rect width="4" height="4" x="88" y="24" stroke="none" fill="transparent" />
<rect width="4" height="4" x="92" y="24" stroke="none" fill="transparent" />
<rect width="4" height="4" x="96" y="24" stroke="none" fill="rgba(215, 185, 15, 1)" />
<rect width="4" height="4" x="100" y="24" stroke="none" fill="#DEC010" />
<rect width="4" height="4" x="104" y="24" stroke="none" fill="rgba(215, 185, 15, 1)" />
<rect width="4" height="4" x="108" y="24" stroke="none" fill="#DEC010" />
<rect width="4" height="4" x="112" y="24" stroke="none" fill="transparent" />
<rect width="4" height="4" x="116" y="24" stroke="none" fill="#DEC010" />
<rect width="4" height="4" x="120" y="24" stroke="none" fill="rgba(215, 185, 15, 1)" />
<rect width="4" height="4" x="124" y="24" stroke="none" fill="transparent" />
<rect width="4" height="4" x="128" y="24" stroke="none" fill="transparent" />
<rect width="4" height="4" x="132" y="24" stroke="none" fill="transparent" />
<rect width="4" height="4" x="136" y="24" stroke="none" fill="transparent" />
<rect width="4" height="4" x="140" y="24" stroke="none" fill="#DEC010" />
<rect width="4" height="4" x="144" y="24" stroke="none" fill="rgba(215, 185, 15, 1)" />
<rect width="4" height="4" x="148" y="24" stroke="none" fill="transparent" />
<rect width="4" height="4" x="152" y="24" stroke="none" fill="rgba(215, 185, 15, 1)" />
<rect width="4" height="4" x="156" y="24" stroke="none" fill="#DEC010" />
<rect width="4" height="4" x="160" y="24" stroke="none" fill="rgba(215, 185, 15, 1)" />
<rect width="4" height="4" x="164" y="24" stroke="none" fill="#DEC010" />
<rect width="4" height="4" x="168" y="24" stroke="none" fill="rgba(215, 185, 15, 1)" />
<rect width="4" height="4" x="172" y="24" stroke="none" fill="#DEC010" />
<rect width="4" height="4" x="176" y="24" stroke="none" fill="rgba(215, 185, 15, 1)" />
<rect width="4" height="4" x="180" y="24" stroke="none" fill="#DEC010" />
<rect width="4" height="4" x="184" y="24" stroke="none" fill="transparent" />
<rect width="4" height="4" x="188" y="24" stroke="none" fill="#DEC010" /><rect width="4" height="4" x="0" y="28" stroke="none" fill="#DEC010" />
<rect width="4" height="4" x="4" y="28" stroke="none" fill="transparent" />
<rect width="4" height="4" x="8" y="28" stroke="none" fill="transparent" />
<rect width="4" height="4" x="12" y="28" stroke="none" fill="transparent" />
<rect width="4" height="4" x="16" y="28" stroke="none" fill="transparent" />
<rect width="4" height="4" x="20" y="28" stroke="none" fill="transparent" />
<rect width="4" height="4" x="24" y="28" stroke="none" fill="transparent" />
<rect width="4" height="4" x="28" y="28" stroke="none" fill="transparent" />
<rect width="4" height="4" x="32" y="28" stroke="none" fill="#DEC010" />
<rect width="4" height="4" x="36" y="28" stroke="none" fill="rgba(215, 185, 15, 1)" />
<rect width="4" height="4" x="40" y="28" stroke="none" fill="transparent" />
<rect width="4" height="4" x="44" y="28" stroke="none" fill="rgba(215, 185, 15, 1)" />
<rect width="4" height="4" x="48" y="28" stroke="none" fill="#DEC010" />
<rect width="4" height="4" x="52" y="28" stroke="none" fill="transparent" />
<rect width="4" height="4" x="56" y="28" stroke="none" fill="transparent" />
<rect width="4" height="4" x="60" y="28" stroke="none" fill="transparent" />
<rect width="4" height="4" x="64" y="28" stroke="none" fill="transparent" />
<rect width="4" height="4" x="68" y="28" stroke="none" fill="rgba(215, 185, 15, 1)" />
<rect width="4" height="4" x="72" y="28" stroke="none" fill="#DEC010" />
<rect width="4" height="4" x="76" y="28" stroke="none" fill="transparent" />
<rect width="4" height="4" x="80" y="28" stroke="none" fill="#DEC010" />
<rect width="4" height="4" x="84" y="28" stroke="none" fill="rgba(215, 185, 15, 1)" />
<rect width="4" height="4" x="88" y="28" stroke="none" fill="transparent" />
<rect width="4" height="4" x="92" y="28" stroke="none" fill="transparent" />
<rect width="4" height="4" x="96" y="28" stroke="none" fill="transparent" />
<rect width="4" height="4" x="100" y="28" stroke="none" fill="transparent" />
<rect width="4" height="4" x="104" y="28" stroke="none" fill="#DEC010" />
<rect width="4" height="4" x="108" y="28" stroke="none" fill="rgba(215, 185, 15, 1)" />
<rect width="4" height="4" x="112" y="28" stroke="none" fill="transparent" />
<rect width="4" height="4" x="116" y="28" stroke="none" fill="rgba(215, 185, 15, 1)" />
<rect width="4" height="4" x="120" y="28" stroke="none" fill="#DEC010" />
<rect width="4" height="4" x="124" y="28" stroke="none" fill="transparent" />
<rect width="4" height="4" x="128" y="28" stroke="none" fill="transparent" />
<rect width="4" height="4" x="132" y="28" stroke="none" fill="transparent" />
<rect width="4" height="4" x="136" y="28" stroke="none" fill="transparent" />
<rect width="4" height="4" x="140" y="28" stroke="none" fill="rgba(215, 185, 15, 1)" />
<rect width="4" height="4" x="144" y="28" stroke="none" fill="#DEC010" />
<rect width="4" height="4" x="148" y="28" stroke="none" fill="transparent" />
<rect width="4" height="4" x="152" y="28" stroke="none" fill="transparent" />
<rect width="4" height="4" x="156" y="28" stroke="none" fill="transparent" />
<rect width="4" height="4" x="160" y="28" stroke="none" fill="transparent" />
<rect width="4" height="4" x="164" y="28" stroke="none" fill="transparent" />
<rect width="4" height="4" x="168" y="28" stroke="none" fill="transparent" />
<rect width="4" height="4" x="172" y="28" stroke="none" fill="transparent" />
<rect width="4" height="4" x="176" y="28" stroke="none" fill="#DEC010" />
<rect width="4" height="4" x="180" y="28" stroke="none" fill="rgba(215, 185, 15, 1)" />
<rect width="4" height="4" x="184" y="28" stroke="none" fill="transparent" />
<rect width="4" height="4" x="188" y="28" stroke="none" fill="rgba(215, 185, 15, 1)" /><rect width="4" height="4" x="0" y="32" stroke="none" fill="rgba(215, 185, 15, 1)" />
<rect width="4" height="4" x="4" y="32" stroke="none" fill="transparent" />
<rect width="4" height="4" x="8" y="32" stroke="none" fill="rgba(215, 185, 15, 1)" />
<rect width="4" height="4" x="12" y="32" stroke="none" fill="#DEC010" />
<rect width="4" height="4" x="16" y="32" stroke="none" fill="rgba(215, 185, 15, 1)" />
<rect width="4" height="4" x="20" y="32" stroke="none" fill="#DEC010" />
<rect width="4" height="4" x="24" y="32" stroke="none" fill="rgba(215, 185, 15, 1)" />
<rect width="4" height="4" x="28" y="32" stroke="none" fill="#DEC010" />
<rect width="4" height="4" x="32" y="32" stroke="none" fill="rgba(215, 185, 15, 1)" />
<rect width="4" height="4" x="36" y="32" stroke="none" fill="#DEC010" />
<rect width="4" height="4" x="40" y="32" stroke="none" fill="transparent" />
<rect width="4" height="4" x="44" y="32" stroke="none" fill="#DEC010" />
<rect width="4" height="4" x="48" y="32" stroke="none" fill="rgba(215, 185, 15, 1)" />
<rect width="4" height="4" x="52" y="32" stroke="none" fill="#DEC010" />
<rect width="4" height="4" x="56" y="32" stroke="none" fill="rgba(215, 185, 15, 1)" />
<rect width="4" height="4" x="60" y="32" stroke="none" fill="#DEC010" />
<rect width="4" height="4" x="64" y="32" stroke="none" fill="rgba(215, 185, 15, 1)" />
<rect width="4" height="4" x="68" y="32" stroke="none" fill="#DEC010" />
<rect width="4" height="4" x="72" y="32" stroke="none" fill="rgba(215, 185, 15, 1)" />
<rect width="4" height="4" x="76" y="32" stroke="none" fill="transparent" />
<rect width="4" height="4" x="80" y="32" stroke="none" fill="rgba(215, 185, 15, 1)" />
<rect width="4" height="4" x="84" y="32" stroke="none" fill="#DEC010" />
<rect width="4" height="4" x="88" y="32" stroke="none" fill="rgba(215, 185, 15, 1)" />
<rect width="4" height="4" x="92" y="32" stroke="none" fill="#DEC010" />
<rect width="4" height="4" x="96" y="32" stroke="none" fill="rgba(215, 185, 15, 1)" />
<rect width="4" height="4" x="100" y="32" stroke="none" fill="#DEC010" />
<rect width="4" height="4" x="104" y="32" stroke="none" fill="rgba(215, 185, 15, 1)" />
<rect width="4" height="4" x="108" y="32" stroke="none" fill="#DEC010" />
<rect width="4" height="4" x="112" y="32" stroke="none" fill="transparent" />
<rect width="4" height="4" x="116" y="32" stroke="none" fill="#DEC010" />
<rect width="4" height="4" x="120" y="32" stroke="none" fill="rgba(215, 185, 15, 1)" />
<rect width="4" height="4" x="124" y="32" stroke="none" fill="#DEC010" />
<rect width="4" height="4" x="128" y="32" stroke="none" fill="rgba(215, 185, 15, 1)" />
<rect width="4" height="4" x="132" y="32" stroke="none" fill="#DEC010" />
<rect width="4" height="4" x="136" y="32" stroke="none" fill="rgba(215, 185, 15, 1)" />
<rect width="4" height="4" x="140" y="32" stroke="none" fill="#DEC010" />
<rect width="4" height="4" x="144" y="32" stroke="none" fill="rgba(215, 185, 15, 1)" />
<rect width="4" height="4" x="148" y="32" stroke="none" fill="transparent" />
<rect width="4" height="4" x="152" y="32" stroke="none" fill="rgba(215, 185, 15, 1)" />
<rect width="4" height="4" x="156" y="32" stroke="none" fill="#DEC010" />
<rect width="4" height="4" x="160" y="32" stroke="none" fill="rgba(215, 185, 15, 1)" />
<rect width="4" height="4" x="164" y="32" stroke="none" fill="#DEC010" />
<rect width="4" height="4" x="168" y="32" stroke="none" fill="rgba(215, 185, 15, 1)" />
<rect width="4" height="4" x="172" y="32" stroke="none" fill="#DEC010" />
<rect width="4" height="4" x="176" y="32" stroke="none" fill="rgba(215, 185, 15, 1)" />
<rect width="4" height="4" x="180" y="32" stroke="none" fill="#DEC010" />
<rect width="4" height="4" x="184" y="32" stroke="none" fill="transparent" />
<rect width="4" height="4" x="188" y="32" stroke="none" fill="#DEC010" /><rect width="4" height="4" x="0" y="36" stroke="none" fill="#DEC010" />
<rect width="4" height="4" x="4" y="36" stroke="none" fill="transparent" />
<rect width="4" height="4" x="8" y="36" stroke="none" fill="#DEC010" />
<rect width="4" height="4" x="12" y="36" stroke="none" fill="rgba(215, 185, 15, 1)" />
<rect width="4" height="4" x="16" y="36" stroke="none" fill="#DEC010" />
<rect width="4" height="4" x="20" y="36" stroke="none" fill="rgba(215, 185, 15, 1)" />
<rect width="4" height="4" x="24" y="36" stroke="none" fill="#DEC010" />
<rect width="4" height="4" x="28" y="36" stroke="none" fill="rgba(215, 185, 15, 1)" />
<rect width="4" height="4" x="32" y="36" stroke="none" fill="#DEC010" />
<rect width="4" height="4" x="36" y="36" stroke="none" fill="rgba(215, 185, 15, 1)" />
<rect width="4" height="4" x="40" y="36" stroke="none" fill="transparent" />
<rect width="4" height="4" x="44" y="36" stroke="none" fill="rgba(215, 185, 15, 1)" />
<rect width="4" height="4" x="48" y="36" stroke="none" fill="#DEC010" />
<rect width="4" height="4" x="52" y="36" stroke="none" fill="rgba(215, 185, 15, 1)" />
<rect width="4" height="4" x="56" y="36" stroke="none" fill="#DEC010" />
<rect width="4" height="4" x="60" y="36" stroke="none" fill="rgba(215, 185, 15, 1)" />
<rect width="4" height="4" x="64" y="36" stroke="none" fill="#DEC010" />
<rect width="4" height="4" x="68" y="36" stroke="none" fill="rgba(215, 185, 15, 1)" />
<rect width="4" height="4" x="72" y="36" stroke="none" fill="#DEC010" />
<rect width="4" height="4" x="76" y="36" stroke="none" fill="transparent" />
<rect width="4" height="4" x="80" y="36" stroke="none" fill="#DEC010" />
<rect width="4" height="4" x="84" y="36" stroke="none" fill="rgba(215, 185, 15, 1)" />
<rect width="4" height="4" x="88" y="36" stroke="none" fill="#DEC010" />
<rect width="4" height="4" x="92" y="36" stroke="none" fill="rgba(215, 185, 15, 1)" />
<rect width="4" height="4" x="96" y="36" stroke="none" fill="#DEC010" />
<rect width="4" height="4" x="100" y="36" stroke="none" fill="rgba(215, 185, 15, 1)" />
<rect width="4" height="4" x="104" y="36" stroke="none" fill="#DEC010" />
<rect width="4" height="4" x="108" y="36" stroke="none" fill="rgba(215, 185, 15, 1)" />
<rect width="4" height="4" x="112" y="36" stroke="none" fill="transparent" />
<rect width="4" height="4" x="116" y="36" stroke="none" fill="rgba(215, 185, 15, 1)" />
<rect width="4" height="4" x="120" y="36" stroke="none" fill="#DEC010" />
<rect width="4" height="4" x="124" y="36" stroke="none" fill="rgba(215, 185, 15, 1)" />
<rect width="4" height="4" x="128" y="36" stroke="none" fill="#DEC010" />
<rect width="4" height="4" x="132" y="36" stroke="none" fill="rgba(215, 185, 15, 1)" />
<rect width="4" height="4" x="136" y="36" stroke="none" fill="#DEC010" />
<rect width="4" height="4" x="140" y="36" stroke="none" fill="rgba(215, 185, 15, 1)" />
<rect width="4" height="4" x="144" y="36" stroke="none" fill="#DEC010" />
<rect width="4" height="4" x="148" y="36" stroke="none" fill="transparent" />
<rect width="4" height="4" x="152" y="36" stroke="none" fill="#DEC010" />
<rect width="4" height="4" x="156" y="36" stroke="none" fill="rgba(215, 185, 15, 1)" />
<rect width="4" height="4" x="160" y="36" stroke="none" fill="#DEC010" />
<rect width="4" height="4" x="164" y="36" stroke="none" fill="rgba(215, 185, 15, 1)" />
<rect width="4" height="4" x="168" y="36" stroke="none" fill="#DEC010" />
<rect width="4" height="4" x="172" y="36" stroke="none" fill="rgba(215, 185, 15, 1)" />
<rect width="4" height="4" x="176" y="36" stroke="none" fill="#DEC010" />
<rect width="4" height="4" x="180" y="36" stroke="none" fill="rgba(215, 185, 15, 1)" />
<rect width="4" height="4" x="184" y="36" stroke="none" fill="transparent" />
<rect width="4" height="4" x="188" y="36" stroke="none" fill="rgba(215, 185, 15, 1)" /><rect width="4" height="4" x="0" y="40" stroke="none" fill="rgba(215, 185, 15, 1)" />
<rect width="4" height="4" x="4" y="40" stroke="none" fill="transparent" />
<rect width="4" height="4" x="8" y="40" stroke="none" fill="transparent" />
<rect width="4" height="4" x="12" y="40" stroke="none" fill="transparent" />
<rect width="4" height="4" x="16" y="40" stroke="none" fill="transparent" />
<rect width="4" height="4" x="20" y="40" stroke="none" fill="transparent" />
<rect width="4" height="4" x="24" y="40" stroke="none" fill="transparent" />
<rect width="4" height="4" x="28" y="40" stroke="none" fill="transparent" />
<rect width="4" height="4" x="32" y="40" stroke="none" fill="transparent" />
<rect width="4" height="4" x="36" y="40" stroke="none" fill="transparent" />
<rect width="4" height="4" x="40" y="40" stroke="none" fill="transparent" />
<rect width="4" height="4" x="44" y="40" stroke="none" fill="transparent" />
<rect width="4" height="4" x="48" y="40" stroke="none" fill="transparent" />
<rect width="4" height="4" x="52" y="40" stroke="none" fill="transparent" />
<rect width="4" height="4" x="56" y="40" stroke="none" fill="transparent" />
<rect width="4" height="4" x="60" y="40" stroke="none" fill="transparent" />
<rect width="4" height="4" x="64" y="40" stroke="none" fill="transparent" />
<rect width="4" height="4" x="68" y="40" stroke="none" fill="transparent" />
<rect width="4" height="4" x="72" y="40" stroke="none" fill="transparent" />
<rect width="4" height="4" x="76" y="40" stroke="none" fill="transparent" />
<rect width="4" height="4" x="80" y="40" stroke="none" fill="transparent" />
<rect width="4" height="4" x="84" y="40" stroke="none" fill="transparent" />
<rect width="4" height="4" x="88" y="40" stroke="none" fill="transparent" />
<rect width="4" height="4" x="92" y="40" stroke="none" fill="transparent" />
<rect width="4" height="4" x="96" y="40" stroke="none" fill="transparent" />
<rect width="4" height="4" x="100" y="40" stroke="none" fill="transparent" />
<rect width="4" height="4" x="104" y="40" stroke="none" fill="transparent" />
<rect width="4" height="4" x="108" y="40" stroke="none" fill="transparent" />
<rect width="4" height="4" x="112" y="40" stroke="none" fill="transparent" />
<rect width="4" height="4" x="116" y="40" stroke="none" fill="transparent" />
<rect width="4" height="4" x="120" y="40" stroke="none" fill="transparent" />
<rect width="4" height="4" x="124" y="40" stroke="none" fill="transparent" />
<rect width="4" height="4" x="128" y="40" stroke="none" fill="transparent" />
<rect width="4" height="4" x="132" y="40" stroke="none" fill="transparent" />
<rect width="4" height="4" x="136" y="40" stroke="none" fill="transparent" />
<rect width="4" height="4" x="140" y="40" stroke="none" fill="transparent" />
<rect width="4" height="4" x="144" y="40" stroke="none" fill="transparent" />
<rect width="4" height="4" x="148" y="40" stroke="none" fill="transparent" />
<rect width="4" height="4" x="152" y="40" stroke="none" fill="transparent" />
<rect width="4" height="4" x="156" y="40" stroke="none" fill="transparent" />
<rect width="4" height="4" x="160" y="40" stroke="none" fill="transparent" />
<rect width="4" height="4" x="164" y="40" stroke="none" fill="transparent" />
<rect width="4" height="4" x="168" y="40" stroke="none" fill="transparent" />
<rect width="4" height="4" x="172" y="40" stroke="none" fill="transparent" />
<rect width="4" height="4" x="176" y="40" stroke="none" fill="transparent" />
<rect width="4" height="4" x="180" y="40" stroke="none" fill="transparent" />
<rect width="4" height="4" x="184" y="40" stroke="none" fill="transparent" />
<rect width="4" height="4" x="188" y="40" stroke="none" fill="#DEC010" /><rect width="4" height="4" x="0" y="44" stroke="none" fill="#DEC010" />
<rect width="4" height="4" x="4" y="44" stroke="none" fill="rgba(215, 185, 15, 1)" />
<rect width="4" height="4" x="8" y="44" stroke="none" fill="#DEC010" />
<rect width="4" height="4" x="12" y="44" stroke="none" fill="rgba(215, 185, 15, 1)" />
<rect width="4" height="4" x="16" y="44" stroke="none" fill="#DEC010" />
<rect width="4" height="4" x="20" y="44" stroke="none" fill="rgba(215, 185, 15, 1)" />
<rect width="4" height="4" x="24" y="44" stroke="none" fill="#DEC010" />
<rect width="4" height="4" x="28" y="44" stroke="none" fill="rgba(215, 185, 15, 1)" />
<rect width="4" height="4" x="32" y="44" stroke="none" fill="#DEC010" />
<rect width="4" height="4" x="36" y="44" stroke="none" fill="rgba(215, 185, 15, 1)" />
<rect width="4" height="4" x="40" y="44" stroke="none" fill="#DEC010" />
<rect width="4" height="4" x="44" y="44" stroke="none" fill="rgba(215, 185, 15, 1)" />
<rect width="4" height="4" x="48" y="44" stroke="none" fill="#DEC010" />
<rect width="4" height="4" x="52" y="44" stroke="none" fill="rgba(215, 185, 15, 1)" />
<rect width="4" height="4" x="56" y="44" stroke="none" fill="#DEC010" />
<rect width="4" height="4" x="60" y="44" stroke="none" fill="rgba(215, 185, 15, 1)" />
<rect width="4" height="4" x="64" y="44" stroke="none" fill="#DEC010" />
<rect width="4" height="4" x="68" y="44" stroke="none" fill="rgba(215, 185, 15, 1)" />
<rect width="4" height="4" x="72" y="44" stroke="none" fill="#DEC010" />
<rect width="4" height="4" x="76" y="44" stroke="none" fill="rgba(215, 185, 15, 1)" />
<rect width="4" height="4" x="80" y="44" stroke="none" fill="#DEC010" />
<rect width="4" height="4" x="84" y="44" stroke="none" fill="rgba(215, 185, 15, 1)" />
<rect width="4" height="4" x="88" y="44" stroke="none" fill="#DEC010" />
<rect width="4" height="4" x="92" y="44" stroke="none" fill="rgba(215, 185, 15, 1)" />
<rect width="4" height="4" x="96" y="44" stroke="none" fill="#DEC010" />
<rect width="4" height="4" x="100" y="44" stroke="none" fill="rgba(215, 185, 15, 1)" />
<rect width="4" height="4" x="104" y="44" stroke="none" fill="#DEC010" />
<rect width="4" height="4" x="108" y="44" stroke="none" fill="rgba(215, 185, 15, 1)" />
<rect width="4" height="4" x="112" y="44" stroke="none" fill="#DEC010" />
<rect width="4" height="4" x="116" y="44" stroke="none" fill="rgba(215, 185, 15, 1)" />
<rect width="4" height="4" x="120" y="44" stroke="none" fill="#DEC010" />
<rect width="4" height="4" x="124" y="44" stroke="none" fill="rgba(215, 185, 15, 1)" />
<rect width="4" height="4" x="128" y="44" stroke="none" fill="#DEC010" />
<rect width="4" height="4" x="132" y="44" stroke="none" fill="rgba(215, 185, 15, 1)" />
<rect width="4" height="4" x="136" y="44" stroke="none" fill="#DEC010" />
<rect width="4" height="4" x="140" y="44" stroke="none" fill="rgba(215, 185, 15, 1)" />
<rect width="4" height="4" x="144" y="44" stroke="none" fill="#DEC010" />
<rect width="4" height="4" x="148" y="44" stroke="none" fill="rgba(215, 185, 15, 1)" />
<rect width="4" height="4" x="152" y="44" stroke="none" fill="#DEC010" />
<rect width="4" height="4" x="156" y="44" stroke="none" fill="rgba(215, 185, 15, 1)" />
<rect width="4" height="4" x="160" y="44" stroke="none" fill="#DEC010" />
<rect width="4" height="4" x="164" y="44" stroke="none" fill="rgba(215, 185, 15, 1)" />
<rect width="4" height="4" x="168" y="44" stroke="none" fill="#DEC010" />
<rect width="4" height="4" x="172" y="44" stroke="none" fill="rgba(215, 185, 15, 1)" />
<rect width="4" height="4" x="176" y="44" stroke="none" fill="#DEC010" />
<rect width="4" height="4" x="180" y="44" stroke="none" fill="rgba(215, 185, 15, 1)" />
<rect width="4" height="4" x="184" y="44" stroke="none" fill="#DEC010" />
<rect width="4" height="4" x="188" y="44" stroke="none" fill="rgba(215, 185, 15, 1)" />
</svg>
